<?xml version="1.0" encoding="UTF-8"?>
<svg version="1.2" baseProfile="tiny" id="Layer_1" xmlns="http://www.w3.org/2000/svg" xmlns:xlink="http://www.w3.org/1999/xlink" x="0px" y="0px" viewBox="0 0 160 160" xml:space="preserve"><path fill="#010101" d="M136.1,133.3l23.9-23.9V51.2l-24-24l19.1-19.1l4.9,4.9l0-12.9l-12.9,0l4.9,4.9L133,24.2l-24-24H51l-24,24 L8,5.2l4.9-4.9L0,0.2l0,12.9l4.9-4.9L24,27.3l-24,24v58.2l23.9,23.9l-19,19L0,147.3l0,12.9l12.9,0L8,155.3l19-19l23.9,23.9h58.4 l23.9-23.9l19,19l-4.9,4.9l12.9,0l0-12.9l-4.9,4.9L136.1,133.3z M155.7,53v54.6l-22.6,22.6l-50-50L133,30.3L155.7,53z M52.8,4.5 h54.4l22.7,22.7L80,77.2L30.1,27.3L52.8,4.5z M4.3,107.6V53L27,30.3L77,80.2l-50,50L4.3,107.6z M107.4,155.9H52.6L30,133.3l50-50 l50,50L107.4,155.9z"/></svg>